<svg xmlns="http://www.w3.org/2000/svg">
<path d="M2.81982 15.6602C1.95101 15.6602 1.29801 15.4443 0.86084 15.0127C0.429199 14.5866 0.213379 13.9447 0.213379 13.0869V2.95166C0.213379 2.09391 0.429199 1.45199 0.86084 1.02588C1.29801 0.594238 1.95101 0.378418 2.81982 0.378418H17.1802C18.0545 0.378418 18.7075 0.594238 19.1392 1.02588C19.5708 1.45199 19.7866 2.09391 19.7866 2.95166V13.0869C19.7866 13.9447 19.5708 14.5866 19.1392 15.0127C18.7075 15.4443 18.0545 15.6602 17.1802 15.6602H2.81982ZM2.83643 14.3237H17.1636C17.5731 14.3237 17.8885 14.2158 18.1099 14C18.3368 13.7786 18.4502 13.4521 18.4502 13.0205V3.01807C18.4502 2.58643 18.3368 2.2627 18.1099 2.04688C17.8885 1.82552 17.5731 1.71484 17.1636 1.71484H2.83643C2.42139 1.71484 2.10319 1.82552 1.88184 2.04688C1.66048 2.2627 1.5498 2.58643 1.5498 3.01807V13.0205C1.5498 13.4521 1.66048 13.7786 1.88184 14C2.10319 14.2158 2.42139 14.3237 2.83643 14.3237ZM6.53857 14.5811V1.46582H7.8418V14.5811H6.53857ZM4.94482 4.79443H3.16016C3.03841 4.79443 2.9305 4.7474 2.83643 4.65332C2.74235 4.55371 2.69531 4.4458 2.69531 4.32959C2.69531 4.20231 2.74235 4.0944 2.83643 4.00586C2.9305 3.91178 3.03841 3.86475 3.16016 3.86475H4.94482C5.06657 3.86475 5.17448 3.91178 5.26855 4.00586C5.36816 4.0944 5.41797 4.20231 5.41797 4.32959C5.41797 4.4458 5.36816 4.55371 5.26855 4.65332C5.17448 4.7474 5.06657 4.79443 4.94482 4.79443ZM4.94482 6.94434H3.16016C3.03841 6.94434 2.9305 6.8973 2.83643 6.80322C2.74235 6.70915 2.69531 6.59847 2.69531 6.47119C2.69531 6.34945 2.74235 6.2443 2.83643 6.15576C2.9305 6.06169 3.03841 6.01465 3.16016 6.01465H4.94482C5.06657 6.01465 5.17448 6.06169 5.26855 6.15576C5.36816 6.2443 5.41797 6.34945 5.41797 6.47119C5.41797 6.59847 5.36816 6.70915 5.26855 6.80322C5.17448 6.8973 5.06657 6.94434 4.94482 6.94434ZM4.94482 9.08594H3.16016C3.03841 9.08594 2.9305 9.04167 2.83643 8.95312C2.74235 8.85905 2.69531 8.75114 2.69531 8.62939C2.69531 8.50212 2.74235 8.39421 2.83643 8.30566C2.9305 8.21159 3.03841 8.16455 3.16016 8.16455H4.94482C5.06657 8.16455 5.17448 8.21159 5.26855 8.30566C5.36816 8.39421 5.41797 8.50212 5.41797 8.62939C5.41797 8.75114 5.36816 8.85905 5.26855 8.95312C5.17448 9.04167 5.06657 9.08594 4.94482 9.08594Z" fill="currentColor"/>
</svg>
