<svg xmlns="http://www.w3.org/2000/svg" id="air-drop" x="0" y="0" version="1.1" viewBox="0 0 29 29" xml:space="preserve"><path d="M20.511 20.434l-1.414-1.414A6.552 6.552 0 0 0 21 14.423c0-3.584-2.916-6.5-6.5-6.5S8 10.839 8 14.423a6.55 6.55 0 0 0 1.903 4.596l-1.414 1.414A8.559 8.559 0 0 1 6 14.423c0-4.687 3.813-8.5 8.5-8.5s8.5 3.813 8.5 8.5a8.563 8.563 0 0 1-2.489 6.011z"></path><path d="M17.682 17.605l-1.414-1.414A2.52 2.52 0 0 0 17 14.423c0-1.378-1.121-2.5-2.5-2.5s-2.5 1.122-2.5 2.5c0 .658.267 1.302.732 1.768l-1.414 1.414A4.531 4.531 0 0 1 10 14.423c0-2.481 2.019-4.5 4.5-4.5s4.5 2.019 4.5 4.5c0 1.184-.48 2.344-1.318 3.182z"></path><path d="M23.339 23.262l-1.414-1.414A10.576 10.576 0 0 0 25 14.423c0-5.79-4.71-10.5-10.5-10.5S4 8.634 4 14.423c0 2.763 1.121 5.469 3.075 7.424l-1.414 1.414A12.583 12.583 0 0 1 2 14.423c0-6.893 5.607-12.5 12.5-12.5S27 7.531 27 14.423c0 3.29-1.334 6.512-3.661 8.839z"></path><path d="M22 27.077H7a1 1 0 0 1-.707-1.707l7.5-7.5a.999.999 0 0 1 1.414 0l7.5 7.5A1 1 0 0 1 22 27.077zm-12.586-2h10.172L14.5 19.991l-5.086 5.086z"></path></svg>