<svg xmlns="http://www.w3.org/2000/svg" viewBox="0 0 25 25" id="camera"><path d="M12.5,16.556a3.5,3.5,0,1,1,3.5-3.5A3.5,3.5,0,0,1,12.5,16.556Zm0-6a2.5,2.5,0,1,0,2.5,2.5A2.5,2.5,0,0,0,12.5,10.556Z"></path><path d="M19.5,20H5.5A2.5,2.5,0,0,1,3,17.5v-8A2.5,2.5,0,0,1,5.5,7H8.191l.585-1.171A1.492,1.492,0,0,1,10.118,5h4.764a1.491,1.491,0,0,1,1.342.83L16.809,7H19.5A2.5,2.5,0,0,1,22,9.5v8A2.5,2.5,0,0,1,19.5,20ZM5.5,8A1.5,1.5,0,0,0,4,9.5v8A1.5,1.5,0,0,0,5.5,19h14A1.5,1.5,0,0,0,21,17.5v-8A1.5,1.5,0,0,0,19.5,8h-3a.5.5,0,0,1-.447-.276l-.724-1.448A.5.5,0,0,0,14.882,6H10.118a.5.5,0,0,0-.447.275L8.947,7.724A.5.5,0,0,1,8.5,8Z"></path><path d="M18.5,10a.406.406,0,0,1-.19-.04.375.375,0,0,1-.161-.11.359.359,0,0,1-.109-.161A.4.4,0,0,1,18,9.5a.476.476,0,0,1,.149-.351.364.364,0,0,1,.161-.109.5.5,0,0,1,.54.109.485.485,0,0,1,0,.7.369.369,0,0,1-.161.11A.426.426,0,0,1,18.5,10Z"></path></svg>